<svg id="Livello_1" data-name="Livello 1" xmlns="http://www.w3.org/2000/svg" viewBox="0 0 32 32"><defs><style>.cls-1{fill:#453457;}.cls-2{fill:#fff;}</style></defs><title>icon</title><rect class="cls-1" x="1" y="1" width="30" height="30" rx="7.5"/><path class="cls-2" d="M18.06,24.75H14.31a.11.11,0,0,1-.11-.11V18.76a21.41,21.41,0,0,1-1.75-1.85,5.86,5.86,0,0,1-1.52-3.55V11.44h-2a.09.09,0,0,1-.1-.06.09.09,0,0,1,0-.12l3.37-4a.12.12,0,0,1,.18,0l3.34,4a.11.11,0,0,1,0,.1.1.1,0,0,1-.11.11h-2v1.91a2.34,2.34,0,0,0,.49,1.24,11.1,11.1,0,0,0,1.54,1.78c.13.14.28.27.42.41.14-.14.28-.27.41-.41a10.68,10.68,0,0,0,1.54-1.78,2.33,2.33,0,0,0,.49-1.22V11.44h-2a.1.1,0,0,1-.1-.06.1.1,0,0,1,0-.12l3.36-4a.18.18,0,0,1,.09,0,.13.13,0,0,1,.09,0l3.37,4a.11.11,0,0,1,0,.12.11.11,0,0,1-.1.06h-2v1.92a5.86,5.86,0,0,1-1.51,3.55,21.44,21.44,0,0,1-1.69,1.78v5.95a.11.11,0,0,1-.12.11Zm0,0"/></svg>