<?xml version="1.0"?>
<svg xmlns="http://www.w3.org/2000/svg" xmlns:xlink="http://www.w3.org/1999/xlink" version="1.1" id="Capa_1" x="0px" y="0px" viewBox="0 0 512 512" style="enable-background:new 0 0 512 512;" xml:space="preserve" width="512px" height="512px" class=""><g><path style="fill:#504461" d="M502.548,101.183v380.615c0,16.652-13.55,30.202-30.202,30.202H134.882  c-16.652,0-30.202-13.55-30.202-30.202V30.212C104.681,13.55,118.23,0,134.882,0h269.385c8.186,0,16.132,3.392,21.796,9.297  l68.079,70.981C499.566,85.932,502.548,93.347,502.548,101.183z" data-original="#B5EFFF" class="active-path" data-old_color="#B5EFFF"/><path style="fill:#453456" d="M502.548,101.183v380.615c0,16.652-13.55,30.202-30.202,30.202H303.614V0h100.653  c8.186,0,16.132,3.392,21.796,9.297l68.079,70.981C499.566,85.932,502.548,93.347,502.548,101.183z" data-original="#80DBFF" class="" data-old_color="#80DBFF"/><path style="fill:#A5C2AE" d="M276.935,163.388v74.184c0,21.305-17.342,38.648-38.648,38.648H48.1  c-21.315,0-38.648-17.342-38.648-38.648v-74.184c0-21.315,17.333-38.648,38.648-38.648h190.187  C259.593,124.74,276.935,142.073,276.935,163.388z" data-original="#FF475A" class="" data-old_color="#FF475A"/><path style="fill:#A5C2AE" d="M276.935,163.388v74.184c0,21.305-17.342,38.648-38.648,38.648h-95.099V124.74h95.099  C259.593,124.74,276.935,142.073,276.935,163.388z" data-original="#FF2B47" class="" data-old_color="#FF2B47"/><path style="fill:#453456" d="M502.548,101.183v20.965H398.413c-8.286,0-15.011-6.715-15.011-15.011c0-0.07,0.01-0.14,0.02-0.22  c-0.01-0.07-0.02-0.14-0.02-0.22V0h20.865c8.186,0,16.132,3.392,21.796,9.297l68.079,70.981  C499.566,85.932,502.548,93.347,502.548,101.183z" data-original="#445175" class="" data-old_color="#445175"/><g>
	<path style="fill:#FFFFFF" d="M57.296,232.814v-65.388c0-1.301,0.547-2.432,1.645-3.392c1.096-0.959,2.535-1.439,4.318-1.439   h21.281c7.333,0,13.211,1.902,17.632,5.706c4.421,3.804,6.632,9.785,6.632,17.941v0.514c0,8.157-2.314,14.172-6.941,18.043   c-4.626,3.873-10.743,5.809-18.351,5.809H73.335v22.207c0,1.577-0.79,2.794-2.365,3.65c-1.577,0.858-3.462,1.285-5.654,1.285   c-2.195,0-4.079-0.427-5.654-1.285C58.083,235.608,57.296,234.391,57.296,232.814z M73.335,198.269h10.178   c6.168,0,9.253-3.426,9.253-10.28v-1.131c0-6.853-3.084-10.28-9.253-10.28H73.335V198.269z" data-original="#FFFFFF" class="" data-old_color="#FFFFFF"/>
	<path style="fill:#FFFFFF" d="M115.795,232.814v-65.285c0-1.576,0.787-2.792,2.365-3.65c1.575-0.857,3.459-1.286,5.654-1.286   c3.084,0,5.362,0.446,6.837,1.337c1.473,0.892,3.135,3.119,4.986,6.683l16.656,31.769v-34.956c0-1.576,0.787-2.775,2.365-3.599   c1.575-0.823,3.46-1.234,5.654-1.234c2.193,0,4.077,0.411,5.654,1.234c1.576,0.823,2.365,2.022,2.365,3.599v65.388   c0,1.577-0.789,2.794-2.365,3.65c-1.577,0.858-3.462,1.285-5.654,1.285c-4.387,0-7.368-1.439-8.944-4.318l-19.534-35.573v34.956   c0,1.577-0.79,2.794-2.365,3.65c-1.577,0.858-3.461,1.285-5.654,1.285c-2.195,0-4.079-0.427-5.654-1.285   C116.581,235.608,115.795,234.391,115.795,232.814z" data-original="#FFFFFF" class="" data-old_color="#FFFFFF"/>
	<path style="fill:#FFFFFF" d="M178.61,214.103v-27.246c0-8.361,2.278-14.496,6.837-18.403c4.558-3.907,10.503-5.86,17.838-5.86   c7.538,0,13.726,1.817,18.557,5.449c4.832,3.634,7.248,8.636,7.248,15.011c0,2.948-0.616,4.953-1.851,6.014   c-1.233,1.064-3.289,1.593-6.168,1.593c-5.278,0-7.952-1.609-8.02-4.832c0-0.959-0.035-1.764-0.103-2.416   c-0.069-0.65-0.274-1.456-0.616-2.417c-0.344-0.959-0.823-1.712-1.439-2.262c-0.616-0.547-1.526-1.044-2.725-1.491   c-1.2-0.444-2.622-0.667-4.267-0.667c-6.168,0-9.253,3.427-9.253,10.28v27.246c0,6.855,3.049,10.28,9.151,10.28   c6.168,0,9.253-3.426,9.253-10.28v-3.496h-6.066c-1.508,0-2.69-0.599-3.547-1.799c-0.858-1.199-1.285-2.656-1.285-4.369   c0-1.576,0.444-2.998,1.336-4.267c0.891-1.268,2.056-1.902,3.496-1.902h17.272c1.507,0,2.69,0.498,3.548,1.491   c0.856,0.995,1.285,2.177,1.285,3.547v10.796c0,8.363-2.298,14.496-6.889,18.403c-4.592,3.907-10.728,5.86-18.403,5.86   c-7.608,0-13.709-1.953-18.3-5.86C180.906,228.599,178.61,222.466,178.61,214.103z" data-original="#FFFFFF" class="" data-old_color="#FFFFFF"/>
</g></g> </svg>
