<svg id="Livello_1" data-name="Livello 1" xmlns="http://www.w3.org/2000/svg" viewBox="0 0 32 32"><defs><style>.cls-1{fill:#453457;}.cls-2{fill:#fff;}</style></defs><title>icon</title><rect class="cls-1" x="1" y="1" width="30" height="30" rx="7.5"/><path class="cls-2" d="M16.26,25.41a9.71,9.71,0,1,0-9.71-9.7,9.72,9.72,0,0,0,9.71,9.7Zm-5.57-3.2a7.48,7.48,0,0,1,11.13,0,8.52,8.52,0,0,1-11.13,0ZM10,15.14a6.31,6.31,0,0,1,1.43-3.46l.78.77.8-.8-.77-.78a6.31,6.31,0,0,1,3.46-1.43v1.11h1.13V9.44a6.31,6.31,0,0,1,3.46,1.43l-.77.78.81.8.77-.77a6.17,6.17,0,0,1,1.43,3.46H21.41v1.13h1.11A6.32,6.32,0,0,1,20.91,20a8.59,8.59,0,0,0-9.31,0A6.3,6.3,0,0,1,10,16.27H11.1V15.14Zm6.27-8a8.56,8.56,0,0,1,6.38,14.28,7.46,7.46,0,0,0-.81-.78,7.44,7.44,0,1,0-11.15,0,7.46,7.46,0,0,0-.81.78A8.57,8.57,0,0,1,16.26,7.14Zm0,0"/><rect class="cls-2" x="14.55" y="20.86" width="3.41" height="1.14"/><path class="cls-2" d="M14.8,16.59a1.68,1.68,0,0,0,1.46.82,1.7,1.7,0,0,0,1.7-1.7,1.68,1.68,0,0,0-.82-1.46l0,0-4.27-1.94,1.94,4.27Zm1.78-1.35a.57.57,0,1,1-.79.79l-.66-1.45Zm0,0"/></svg>