<svg id="Livello_1" data-name="Livello 1" xmlns="http://www.w3.org/2000/svg" viewBox="0 0 32 32"><defs><style>.cls-1{fill:#453457;}.cls-2{fill:none;stroke:#fff;stroke-miterlimit:10;}</style></defs><title>icon</title><rect class="cls-1" x="1" y="1" width="30" height="30" rx="7.5"/><path class="cls-2" d="M23.18,9a5.35,5.35,0,0,0-8.88,5.44l-6,6a.49.49,0,0,0-.14.34v2.76a.49.49,0,0,0,.49.49h2.76a.49.49,0,0,0,.34-.14l.69-.69a.55.55,0,0,0,.14-.4l-.09-.74,1-.1a.5.5,0,0,0,.44-.44l.09-1,.74.09a.47.47,0,0,0,.38-.12.46.46,0,0,0,.17-.36v-.91h.89a.48.48,0,0,0,.34-.14l1.25-1.24a5.28,5.28,0,0,0,5.4-1.26,5.37,5.37,0,0,0,0-7.58ZM21.8,12.41a1.46,1.46,0,1,1,0-2.06,1.45,1.45,0,0,1,0,2.06Zm0,0"/></svg>