<svg id="Livello_1" data-name="Livello 1" xmlns="http://www.w3.org/2000/svg" viewBox="0 0 32 32"><defs><style>.cls-1{fill:#453457;}.cls-2{fill:#fff;}</style></defs><title>icon</title><rect class="cls-1" x="1" y="1" width="30" height="30" rx="7.5"/><path class="cls-2" d="M26.69,8.75H13.36V8.22A1.4,1.4,0,0,0,12,6.82H9.78a1.4,1.4,0,0,0-1.4,1.4v.53H6.18a.56.56,0,0,0,0,1.12h2.2v.53a1.4,1.4,0,0,0,1.4,1.4H12a1.4,1.4,0,0,0,1.4-1.4V9.87H26.69a.56.56,0,0,0,0-1.12ZM12.24,10.4a.29.29,0,0,1-.28.28H9.78a.29.29,0,0,1-.28-.28V8.22a.29.29,0,0,1,.28-.28H12a.29.29,0,0,1,.28.28Zm0,0"/><path class="cls-2" d="M26.69,15h-2.2v-.52a1.41,1.41,0,0,0-1.4-1.41H20.91a1.41,1.41,0,0,0-1.4,1.41V15H6.18a.56.56,0,0,0-.56.56.57.57,0,0,0,.56.57H19.51v.52a1.4,1.4,0,0,0,1.4,1.4h2.18a1.4,1.4,0,0,0,1.4-1.4v-.52h2.2a.57.57,0,0,0,.56-.57.56.56,0,0,0-.56-.56Zm-3.32,1.65a.28.28,0,0,1-.28.28H20.91a.28.28,0,0,1-.28-.28V14.47a.28.28,0,0,1,.28-.28h2.18a.28.28,0,0,1,.28.28Zm0,0"/><path class="cls-2" d="M26.69,21.7H17.3v-.53a1.4,1.4,0,0,0-1.4-1.4H13.72a1.4,1.4,0,0,0-1.4,1.4v.53H6.18a.56.56,0,0,0,0,1.12h6.14v.53a1.4,1.4,0,0,0,1.4,1.4H15.9a1.4,1.4,0,0,0,1.4-1.4v-.53h9.39a.56.56,0,1,0,0-1.12ZM16.18,23.35a.29.29,0,0,1-.28.28H13.72a.29.29,0,0,1-.28-.28V21.17a.29.29,0,0,1,.28-.28H15.9a.29.29,0,0,1,.28.28Zm0,0"/></svg>