<svg id="Livello_1" data-name="Livello 1" xmlns="http://www.w3.org/2000/svg" viewBox="0 0 32 32"><defs><style>.cls-1{fill:#453457;}.cls-2{fill:#fff;}</style></defs><title>icon</title><rect class="cls-1" x="1" y="1" width="30" height="30" rx="7.5"/><path class="cls-2" d="M21.19,10H15.55a.66.66,0,1,0,0,1.32h5.64a.66.66,0,0,0,0-1.32Zm0,0"/><path class="cls-2" d="M20.7,13.72H10.89c-.63,0-1.14.3-1.14.66s.51.66,1.14.66H20.7c.64,0,1.15-.29,1.15-.66s-.51-.66-1.15-.66Zm0,0"/><path class="cls-2" d="M20.7,17.47H10.89c-.63,0-1.14.3-1.14.66s.51.66,1.14.66H20.7c.64,0,1.15-.29,1.15-.66s-.51-.66-1.15-.66Zm0,0"/><path class="cls-2" d="M20.7,21.22H10.89c-.63,0-1.14.3-1.14.66s.51.66,1.14.66H20.7c.64,0,1.15-.29,1.15-.66s-.51-.66-1.15-.66Zm0,0"/><path class="cls-2" d="M22.68,6H11.42a.7.7,0,0,0-.47.17L6.72,9.94a.53.53,0,0,0-.2.41v13.8A2,2,0,0,0,8.59,26H22.68a2,2,0,0,0,2.07-1.84V7.84A2,2,0,0,0,22.68,6ZM11.46,7.37V9.72a.71.71,0,0,1-.75.67H8.07Zm12,16.78a.71.71,0,0,1-.75.67H8.59a.72.72,0,0,1-.75-.67V11.56h2.87a2,2,0,0,0,2.07-1.84V7.17h9.9a.72.72,0,0,1,.75.67Zm0,0"/></svg>