<svg id="Livello_1" data-name="Livello 1" xmlns="http://www.w3.org/2000/svg" xmlns:xlink="http://www.w3.org/1999/xlink" viewBox="0 0 32 32"><defs><style>.cls-1{fill:none;}.cls-2{fill:#453457;}.cls-3{fill:#fff;}.cls-4{clip-path:url(#clip-path);}</style><clipPath id="clip-path"><rect class="cls-1" x="9.31" y="12.63" width="13.12" height="10.45"/></clipPath></defs><title>icon</title><rect class="cls-2" x="1" y="1" width="30" height="30" rx="7.5"/><path class="cls-3" d="M22.68,6H11.42a.7.7,0,0,0-.47.17L6.72,9.94a.53.53,0,0,0-.2.41v13.8A2,2,0,0,0,8.59,26H22.68a2,2,0,0,0,2.07-1.84V7.84A2,2,0,0,0,22.68,6ZM11.46,7.37V9.72a.71.71,0,0,1-.75.67H8.07Zm12,16.78a.71.71,0,0,1-.75.67H8.59a.72.72,0,0,1-.75-.67V11.56h2.87a2,2,0,0,0,2.07-1.84V7.17h9.9a.72.72,0,0,1,.75.67Zm0,0"/><g class="cls-4"><path class="cls-3" d="M9.31,15.53h2.9v-2.9H9.31Zm.77-2.13h1.36v1.36H10.08Zm0,0"/><path class="cls-3" d="M13.13,12.63v2.9h9.3v-2.9Zm8.53,2.13H13.9V13.4h7.76Zm0,0"/></g><path class="cls-3" d="M9.31,19.3h2.9V16.39H9.31Zm.77-2.14h1.36v1.37H10.08Zm0,0"/><path class="cls-3" d="M13.13,19.3h9.3V16.39h-9.3Zm.77-2.14h7.76v1.37H13.9Zm0,0"/><path class="cls-3" d="M9.31,23.06h2.9v-2.9H9.31Zm.77-2.13h1.36v1.36H10.08Zm0,0"/><path class="cls-3" d="M13.13,23.06h9.3v-2.9h-9.3Zm.77-2.13h7.76v1.36H13.9Zm0,0"/></svg>