<svg id="Livello_1" data-name="Livello 1" xmlns="http://www.w3.org/2000/svg" viewBox="0 0 32 32"><defs><style>.cls-1{fill:#453457;}.cls-2{fill:#fff;}</style></defs><title>icon</title><rect class="cls-1" x="1" y="1" width="30" height="30" rx="7.5"/><rect class="cls-2" x="9.3" y="10.99" width="2.77" height="0.98"/><path class="cls-2" d="M27.25,18.36a4.87,4.87,0,0,1-1.17.53,12.32,12.32,0,0,1-3.71.51,12.32,12.32,0,0,1-3.71-.51,4.87,4.87,0,0,1-1.17-.53v1.3h0v.46a2,2,0,0,0,.26.22l.06,0a8,8,0,0,0,4.56,1.16,9.9,9.9,0,0,0,3.68-.66,2.29,2.29,0,0,0,1.2-.84v-.38h0Zm0,0"/><path class="cls-2" d="M26.53,22a10.91,10.91,0,0,1-4.16.76,10,10,0,0,1-4.89-1.12H15.56V6.6H5.8V24.41h9.76V22.94h2c.26,1.31,2.64,1.91,4.86,1.91s4.88-.67,4.88-2.15v-1a6.06,6.06,0,0,1-.72.35Zm-13.21-.76H8V20h5.28Zm-3.27-2.91V17.11h1.26v1.26Zm3.27-2.91H8V14.2h5.28Zm0-2.24H8V9.73h5.28Zm0,0"/><path class="cls-2" d="M22.37,14.47c-2.35,0-4.88.57-4.88,1.84s2.53,1.83,4.88,1.83,4.88-.57,4.88-1.83-2.53-1.84-4.88-1.84Zm0,0"/></svg>